<svg version="1.2" xmlns="http://www.w3.org/2000/svg" viewBox="0 0 1000 1000" width="1000" height="1000">
	<title>24005402_6842462</title>
	<style>
		tspan { white-space:pre } 
		.s0 { fill: #7b46a5 } 
		.s1 { fill: #d6bbea } 
		.t2 { font-size: 53px;fill: #0f1a47;font-weight: 600;font-family: "Poppins-SemiBold", "Poppins" } 
	</style>
	<g id="OBJECTS">
		<g id="&lt;Group&gt;">
			<g id="&lt;Group&gt;">
				<g id="&lt;Group&gt;">
					<path id="&lt;Path&gt;" class="s0" d="m372.9 361.9c-7.7 5.1-12.2 16-3.7 28.9 8.5 13 129.8 100.3 134.3 102.8 4.4 2.4 8.9 2.8 20.2-5.7 11.3-8.5 106-74.9 108.4-76.9 3.9-3.1 4.9-10.9 0-14.5 0 0-114.6 80.1-118.4 83.3-3.7 3.2-9.6-2-8.5-8.9 1.1-6.9 1.9-7.7 16.5-18.2 14.5-10.5 97.1-68.9 100.9-71.5 4.2-2.9 4.3-8.1-2.6-12.7-9.7-6.3-114.1-75.6-117.6-78.1-3.5-2.4-8.3-4.6-15.6 0.3-7.3 4.8-99.8 61.8-113.9 71.2z"/>
					<path id="&lt;Path&gt;" class="s0" d="m503.5 502.1c-2.9-1.6-56.2-39.8-94.9-69.5v62c0 45.2 136.5 69.3 181.7 13.7v-59.2c-27.8 19.6-60.2 42.6-66.6 47.3-11.3 8.5-15.8 8.1-20.2 5.7z"/>
				</g>
				<path id="&lt;Path&gt;" class="s1" d="m561.2 434.1c0 0 20.3 9.6 21.8 47.9l-9.9-2.5-7.8 15.6c-3.3-42-21.5-48.1-21.5-48.1z"/>
			</g>
			<text id="library" style="transform: matrix(2,0,0,2,551.346,649.549)" >
				<tspan x="-110.8" y="0" class="t2" dx="0" >l</tspan><tspan  y="0" class="t2" dx="0" >e</tspan><tspan  y="0" class="t2" dx="0" >r</tspan><tspan  y="0" class="t2" dx="0" >n</tspan><tspan  y="0" class="t2" dx="0" >o</tspan><tspan  y="0" class="t2" dx="0" >v</tspan><tspan  y="0" class="t2" dx="0" >a</tspan><tspan  y="0" class="t2" dx="0" >
</tspan>
			</text>
		</g>
	</g>
</svg>
